<svg height="36" viewBox="0 0 36 36" width="36" xmlns="http://www.w3.org/2000/svg"><g fill="none" fill-rule="evenodd"><path d="m0 0h36v36h-36z"/><g fill-rule="nonzero" transform="translate(3 6.409091)"><path d="m0 3.23863636v2.72727273l3.12784091 3.02727273 3.69034091 2.08636368.68181818-4.59034095-.68181818-4.27329546-1.90909091-1.43181818c-2.02329546-1.51704546-4.90909091-.07329545-4.90909091 2.45454545" fill="#c5221f"/><path d="m23.1818182 2.21590909-.6818182 4.32954546.6818182 4.53409095 3.3494318-1.65852277 3.46875-3.45511364v-2.72727273c0-2.5278409-2.8857955-3.97159091-4.9090909-2.45454545z" fill="#fbbc04"/><path d="m2.04545455 22.6704545h4.77272727v-11.590909l-6.81818182-5.11363641v14.65909091c0 1.1301136.91534091 2.0454545 2.04545455 2.0454545" fill="#4285f4"/><path d="m23.1818182 22.6704545h4.7727273c1.1301136 0 2.0454545-.9153409 2.0454545-2.0454545v-14.65909091l-6.8181818 5.11363641z" fill="#34a853"/><path d="m15 8.35227273-8.18181818-6.13636364v8.86363641l8.18181818 6.1363636 8.1818182-6.1363636v-8.86363641z" fill="#ea4335"/></g></g></svg>