<svg height="36" viewBox="0 0 36 36" width="36" xmlns="http://www.w3.org/2000/svg"><g fill="none" fill-rule="evenodd"><path d="m0 0h36v36h-36z"/><g fill-rule="nonzero" transform="translate(3 5.727273)"><path d="m16.875 12.2727273 2.9079545 3.3238636 3.9102273 2.4715909.6818182-5.7732954-.6818182-5.67272731-3.9852273 2.19545455z" fill="#188038"/><path d="m0 17.5568182v4.9431818c0 1.1301136.91534091 2.0454545 2.04545455 2.0454545h4.94318181l1.02272728-3.7363636-1.02272728-3.2522727-3.39204545-1.0227273z" fill="#1967d2"/><path d="m6.98863636 0-6.98863636 6.98863636 3.59659091 1.02272728 3.39204545-1.02272728 1.00568182-3.20965909z" fill="#ea4335"/><path d="m0 6.988636h6.988636v10.568182h-6.988636z" fill="#4285f4"/><path d="m28.1573864 2.95909091-4.4642046 3.66306818v11.44602271l4.4829546 3.8130682c.6715909.525 1.6534091.0460227 1.6534091-.80625v-17.325c0-.86420455-1.0039773-1.33806818-1.6721591-.79090909z" fill="#34a853"/><path d="m16.875 12.2727273v5.2840909h-9.88636364v6.9886363h14.65909094c1.1301136 0 2.0454545-.9153409 2.0454545-2.0454545v-4.4318182z" fill="#34a853"/><path d="m21.6477273 0h-14.65909094v6.98863636h9.88636364v5.28409094l6.8181818-5.65056821v-4.57670454c0-1.13011364-.9153409-2.04545455-2.0454545-2.04545455z" fill="#fbbc04"/></g></g></svg>